<svg width="50" height="50" viewBox="0 0 50 50" fill="none" xmlns="http://www.w3.org/2000/svg">
<circle cx="25" cy="25" r="25" fill="#FFFBFB"/>
<path d="M36.9918 18.0237C36.9944 17.6506 36.8871 17.2831 36.6802 16.9557C36.4733 16.6284 36.1736 16.352 35.8091 16.1526C35.4447 15.9532 35.0277 15.8374 34.5972 15.816C34.1668 15.7945 33.7372 15.8683 33.3488 16.0303C33.3231 15.6545 33.1892 15.2903 32.9592 14.9709C32.7292 14.6514 32.4104 14.3868 32.032 14.2013C31.6536 14.0158 31.2275 13.9152 30.7926 13.9087C30.3578 13.9022 29.9279 13.99 29.5423 14.1641C29.4988 13.6237 29.2388 13.1135 28.807 12.7214C28.3753 12.3292 27.7989 12.0798 27.1774 12.0161C26.5558 11.9525 25.9281 12.0785 25.4025 12.3726C24.8769 12.6666 24.4864 13.1102 24.2983 13.6268C23.8886 13.4142 23.42 13.3018 22.9423 13.3017C22.5909 13.3026 22.2431 13.3635 21.9189 13.481C21.5947 13.5985 21.3005 13.7701 21.0531 13.9862C20.8057 14.2022 20.6101 14.4584 20.4773 14.74C20.3446 15.0217 20.2773 15.3232 20.2795 15.6273V24.5766C19.2339 23.4456 18.2129 22.3287 18.0577 22.1378C17.8215 21.8132 17.4934 21.5461 17.1047 21.3618C16.7159 21.1775 16.2792 21.0821 15.8359 21.0846C15.4599 21.0747 15.0856 21.1317 14.736 21.2519C14.3864 21.3722 14.0691 21.5531 13.8035 21.7836C13.5378 22.0142 13.3297 22.2893 13.1917 22.5922C13.0538 22.8951 12.9891 23.2192 13.0015 23.5445C13.075 24.817 15.9176 29.3128 17.829 31.7586C20.7206 35.4628 23.4814 36 23.604 36H32.197C32.3596 35.9985 32.5173 35.9513 32.6463 35.8657C34.1131 34.6959 35.1739 33.1953 35.7094 31.5324C36.5262 29.3481 36.9592 26.2095 37 21.947L36.9918 18.0237ZM34.3126 31.1366C33.854 32.482 33.0306 33.7132 31.9111 34.7276H23.8163C23.4324 34.6286 21.3087 33.95 19.0216 31.0164C16.7344 28.0828 14.5126 24.1737 14.4718 23.4809C14.4652 23.3329 14.4945 23.1854 14.5578 23.0478C14.6211 22.9103 14.7171 22.7857 14.8394 22.6821C14.9599 22.5748 15.1049 22.4904 15.2653 22.4345C15.4256 22.3785 15.5977 22.3521 15.7706 22.357C15.9863 22.3461 16.2014 22.3873 16.3917 22.4759C16.5821 22.5645 16.7403 22.6971 16.8488 22.8589C17.0857 23.1628 18.7765 24.9795 19.7649 26.0611L21.7498 24.9018V15.6273C21.736 15.4832 21.757 15.3382 21.8113 15.2014C21.8656 15.0646 21.9521 14.9391 22.0654 14.8327C22.1786 14.7263 22.316 14.6414 22.4691 14.5833C22.6222 14.5252 22.7875 14.4952 22.9546 14.4952C23.1217 14.4952 23.287 14.5252 23.4401 14.5833C23.5931 14.6414 23.7306 14.7263 23.8438 14.8327C23.9571 14.9391 24.0435 15.0646 24.0979 15.2014C24.1522 15.3382 24.1731 15.4832 24.1594 15.6273V23.5021H25.6297V14.3125C25.6645 14.0524 25.8085 13.8124 26.0344 13.6382C26.2604 13.464 26.5524 13.3678 26.855 13.3678C27.1575 13.3678 27.4496 13.464 27.6755 13.6382C27.9014 13.8124 28.0454 14.0524 28.0802 14.3125V23.594H29.5505V16.207C29.537 16.0676 29.5571 15.9273 29.6094 15.795C29.6618 15.6627 29.7453 15.5412 29.8547 15.4383C29.9641 15.3353 30.097 15.2531 30.245 15.1969C30.393 15.1407 30.5529 15.1117 30.7145 15.1117C30.8761 15.1117 31.036 15.1407 31.184 15.1969C31.3319 15.2531 31.4648 15.3353 31.5742 15.4383C31.6837 15.5412 31.7672 15.6627 31.8195 15.795C31.8719 15.9273 31.892 16.0676 31.8785 16.207V24.2939H33.3488V18.0025C33.3723 17.7681 33.4965 17.5499 33.6969 17.391C33.8973 17.232 34.1592 17.1438 34.4311 17.1438C34.7029 17.1438 34.9649 17.232 35.1652 17.391C35.3656 17.5499 35.4898 17.7681 35.5134 18.0025V21.9258C35.4889 26.1035 35.0968 29.0795 34.3126 31.1366Z" fill="black"/>
</svg>
