<svg width="50" height="50" viewBox="0 0 50 50" fill="none" xmlns="http://www.w3.org/2000/svg">
<circle cx="25" cy="25" r="25" fill="#FFFBFB"/>
<path d="M27.9938 14.5038C27.9938 13.1937 26.4344 12.5123 25.4748 13.4038L19.6692 18.7961C19.5307 18.9251 19.3486 18.9969 19.1594 18.9972H15.2491C14.6526 18.9972 14.0805 19.2344 13.6587 19.6565C13.237 20.0787 13 20.6513 13 21.2484V28.7523C13 29.3493 13.237 29.9219 13.6587 30.3441C14.0805 30.7663 14.6526 31.0035 15.2491 31.0035H19.1594C19.3484 31.0033 19.5305 31.0746 19.6692 31.2031L25.4748 36.5969C26.4344 37.4869 27.9938 36.807 27.9938 35.4968V14.5038ZM20.6888 19.8962L26.4944 14.5038V35.4968L20.6888 30.103C20.2729 29.717 19.7266 29.5026 19.1594 29.5027H15.2491C15.0502 29.5027 14.8595 29.4236 14.719 29.2829C14.5784 29.1422 14.4994 28.9513 14.4994 28.7523V21.2484C14.4994 21.0494 14.5784 20.8585 14.719 20.7178C14.8595 20.577 15.0502 20.498 15.2491 20.498H19.1594C19.7266 20.4981 20.2729 20.2836 20.6888 19.8977V19.8962Z" fill="black"/>
</svg>
